<?xml version="1.0" encoding="UTF-8" standalone="no"?>
<!-- Generator: Adobe Illustrator 23.0.1, SVG Export Plug-In . SVG Version: 6.00 Build 0)  -->

<svg
   version="1.1"
   x="0px"
   y="0px"
   viewBox="0 0 2267.72 2267.72"
   style="enable-background:new 0 0 2267.72 2267.72;"
   xml:space="preserve"
   id="svg29"
   sodipodi:docname="logo1 _画板 1.svg"
   inkscape:version="1.3 (0e150ed6c4, 2023-07-21)"
   xmlns:inkscape="http://www.inkscape.org/namespaces/inkscape"
   xmlns:sodipodi="http://sodipodi.sourceforge.net/DTD/sodipodi-0.dtd"
   xmlns="http://www.w3.org/2000/svg"
   xmlns:svg="http://www.w3.org/2000/svg"><defs
   id="defs29" /><sodipodi:namedview
   id="namedview29"
   pagecolor="#ffffff"
   bordercolor="#000000"
   borderopacity="0.25"
   inkscape:showpageshadow="2"
   inkscape:pageopacity="0.0"
   inkscape:pagecheckerboard="0"
   inkscape:deskcolor="#d1d1d1"
   inkscape:zoom="0.25"
   inkscape:cx="2178"
   inkscape:cy="1034"
   inkscape:window-width="2560"
   inkscape:window-height="1480"
   inkscape:window-x="-12"
   inkscape:window-y="-12"
   inkscape:window-maximized="1"
   inkscape:current-layer="图层_1" />&#10;<style
   type="text/css"
   id="style1">&#10;	.st0{fill:#FFCA87;}&#10;	.st1{fill:#A56D5C;}&#10;	.st2{fill:#D5A694;}&#10;	.st3{fill:#BAC0BC;}&#10;	.st4{fill:#486A8D;}&#10;	.st5{fill:#334A96;}&#10;	.st6{fill:#F8D39C;}&#10;	.st7{fill:#A8A5C2;}&#10;	.st8{fill:#2D6EA4;}&#10;	.st9{fill:#BEC2CB;}&#10;	.st10{fill:#56A2D3;}&#10;	.st11{fill:#2486B3;}&#10;	.st12{fill:#9FA7D6;}&#10;</style>&#10;<g
   id="图层_2">&#10;</g>&#10;<g
   id="图层_1">&#10;	<path
   class="st0"
   d="m 1576.6411,738 c 0,0 -100.7908,-99.65 -369.397,31.67 0,0 -349.19683,98.3 -744.92016,65.81 0,0 -67.88559,383.51 376.95821,661.51 0,0 325.63005,-93 530.94255,-342 C 1575.5373,905.99 1576.6411,738 1576.6411,738 Z"
   id="path1"
   style="stroke-width:1.05063" />&#10;	<path
   class="st1"
   d="m 839.18242,1496.9147 c -3.59849,1.09 -6.78818,1.9953 -10.39771,3.0553 -0.011,0 -0.011,0 -0.0221,0.01 -3.60953,1.04 -7.21906,2.06 -10.82858,3.1 -0.0221,0.01 -0.0442,0.01 -0.0662,0.02 -3.52122,0.99 -40.01387,10.64 -54.24224,13.97 -14.59265,3.41 -29.26256,6.54 -43.98766,9.45 -0.0331,0.01 -0.0773,0.01 -0.11038,0.02 -15.24391,3.01 -31.05076,6.83 -46.5927,8.24 -3.7751,0.6 -7.5502,1.18 -11.3253,1.74 -0.0442,0 -0.0773,0.01 -0.12142,0.01 -96.91634,14.72 -196.30527,17.62 -294.14882,9.84 -47.27707,-86.3 -79.08948,-179.41 -94.4548,-274.73 -15.77374,-97.9 -14.50434,-198.15 3.9186,-295.67 9.9124,-52.49 24.81411,-104.2 44.58372,-154.35 47.19981,7.23 95.43721,12.65 144.5356,16.16 -17.14249,153.29 28.89829,307.57 124.28031,434.61 25.42122,33.86 60.07047,75.94 92.33544,104.61 57.3992,51 107.75557,88.1547 156.64424,119.9147 z"
   id="path2"
   style="stroke-width:1.05063"
   sodipodi:nodetypes="ccccccccccccccccccc" />&#10;	<path
   class="st2"
   d="m 1870.2601,1439 c 12.2635,12.91 25.3329,29.81 33.1149,44 203.723,-279.92 37.9238,-691.59134 -9.9859,-714.56497 -18.412,-11.66292 -30.7565,-19.37503 -104.7021,-25.00503 25.5757,43.74 44.7934,90.51 56.8804,138.78 6.071,24.25 10.3429,48.87 12.8044,73.64 1.2473,12.6 2.0311,25.24 2.3401,37.88 0.287,11.64 -0.1766,24.28 -0.3753,35.95 -2.2297,132.32 -75.4247,246.22 -75.4247,246.22 -13.1827,21.386 -28.1855,41.6038 -42.6799,62.1117 0,0 87.1863,57.9883 128.0281,100.9883 z"
   id="path3"
   style="stroke-width:1.05063"
   sodipodi:nodetypes="ccccccccccc" />&#10;	<path
   class="st3"
   d="m 974.39103,275.23 c 20.18906,86.43 75.87737,164.43 154.19407,216.98 75.6014,50.72 171.0828,76.63 265.085,70.4 84.7301,-5.61 169.725,-45.61 169.725,-45.61 24.2843,30 53.4585,170.49 -16.5574,287 -36.7686,61.19 -97.8988,98.33 -171.0497,114.01 -88.2181,18.91 -181.7347,14.11 -271.0456,5.08 -105.47103,-10.66 -209.73888,-29.49 -313.78597,-48.03 -51.50474,-9.18 -102.99844,-18.42 -154.6798,-26.72 -12.51744,-2.01 -25.04592,-4.17 -37.62959,-5.85 -10.2877,-1.37 -20.56437,-0.72 -30.9183,-0.48 -11.89929,0.27 -23.84274,-0.3 -35.731,-0.72 -47.97248,-1.7 -95.85666,-5.26 -143.47592,-10.71 -22.44088,-2.57 -44.82657,-5.56 -67.13499,-8.97 C 361.31239,720.33 421.18417,625.53 498.11014,543.56 572.78429,464 663.44191,396.73 765.11576,347.37 831.09172,315.36 901.56028,290.96 974.39103,275.23 Z"
   id="path4"
   style="stroke-width:1.05063" />&#10;	<g
   id="XMLID_2_"
   transform="matrix(1.1038308,0,0,1,-117.73912,0)">&#10;		<g
   id="g5">&#10;			<path
   class="st4"
   d="m 491.32,1637.14 c -0.01,0 -0.01,-0.01 -0.01,-0.02 -2.69,-4.12 -5.35,-8.27 -7.97,-12.44 -2.24,-4.47 -5.67,-8.35 -7.91,-12.83 -12.89,-21.31 -24.92,-43.16 -35.98,-65.48 88.64,7.78 178.68,4.88 266.48,-9.84 0.04,0 0.07,-0.01 0.11,-0.01 3.42,-0.56 6.84,-1.14 10.26,-1.74 14.09,-1.41 28.39,-5.25 42.21,-8.24 0.03,-0.01 0.07,-0.01 0.1,-0.02 13.35,-2.87 26.64,-6.02 39.85,-9.45 12.9,-3.35 45.95,-12.98 49.14,-13.97 0.02,-0.01 0.04,-0.01 0.06,-0.02 3.27,-1.04 6.54,-2.06 9.81,-3.1 0.01,-0.01 0.01,-0.01 0.02,-0.01 3.13,-1.01 6.25,-2.03 9.36,-3.06 19.48,11.69 39.68,22.46 60.23,32.12 -182.56,41.24 -323.49,116.45 -397.48,162.25 -13.43,-17.56 -26.22,-35.61 -38.28,-54.14 z"
   id="path5" />&#10;		</g>&#10;	</g>&#10;	<path
   class="st5"
   d="m 1903.375,1483 c -1.6596,2.2786 -3.3721,4.4371 -5.139,6.655 -30.256,36.18 -66.5107,68.495 -107.4076,94.505 -47.3654,30.13 -99.2785,54 -153.5429,72.37 -0.2097,0.07 -0.4194,0.14 -0.6181,0.22 -36.1505,12.21 -73.3275,22 -110.9239,29.55 -0.044,0 -0.099,0.01 -0.1546,0.02 -12.694,2.55 -25.4433,4.84 -38.2036,6.89 -61.1963,9.82 -155.3641,17.71 -234.1666,12.79 -85.5469,-5.35 -153.4325,-24 -153.4325,-24 l 51.88,-80 c 0,0 68.5148,9.85 102.4135,13.44 23.5005,2.48 47.0563,4.52 70.6782,5.86 28.5561,1.63 57.2999,2.11 86.0216,1.35 49.7276,-1.31 99.3668,-6.32 147.8471,-15.5 6.5457,-1.23 13.0583,-2.54 19.5599,-3.93 156.203,-33.42 294.0053,-104.45 320.5745,-117.97 3.0245,-1.54 4.603,-2.34 4.614,-2.25 z"
   id="path6"
   sodipodi:nodetypes="cccccccccccccccccc"
   style="stroke-width:1.05063" />&#10;	<g
   id="XMLID_3_"
   transform="matrix(1.1038308,0,0,1,-117.73912,0)">&#10;		<g
   id="g7">&#10;			<path
   class="st6"
   d="m 1072.82,1583.11 c -22.45,-6.92 -44.22,-15.44 -66.34,-23.29 -16.98,-6.03 -34.04,-11.62 -50.73,-18.48 -30.62,-12.58 -60.72987,-27.0816 -88.95987,-44.4016 21.61,-7.4 42.66987,-16.3184 63.99987,-24.5084 46.71,-17.93 177.66,-95.89 177.71,-95.93 66.07,-44.15 127.55,-95.96 181.69,-154.12 14.66,-15.75 28.83,-31.95 42.46,-48.59 0.05,-0.05 0.09,-0.1 0.13,-0.16 70.15,-85.47 125.85,-183 162.75,-287.27 10.64,-30.04 19.73,-60.67 27.09,-91.68 0.01,-0.03 0.01,-0.06 0.02,-0.09 0.64,-2.64 1.25,-5.28 1.86,-7.92 v -0.02 c 3.81,-16.2 6.99,-32.56 9.8,-48.96 64.4,-0.86 128.83,1.35 193.01,6.74 41.82,78.96 65.4,168.36 65.4,263.07 0,7.56 0.59,15.69 -0.48,23.18 -3.2241,91.1674 -5.9788,165.2022 -53.191,239.7233 -14.4973,19.1752 -25.2323,33.902 -33.3666,45.0057 -12.7073,16.6189 -20.6607,22.5989 -20.6607,22.5989 0,0 -52.5117,-26.5079 -81.5117,-33.5079 -28.75,-6.94 -57.67,-1.5 -86.71,3.01 -53.68,8.33 -105.33,27.48 -152.66,53.95 -32.86,18.38 -63.98,40.22 -92.13,65.25 -22.7,20.18 -40.06,44.3 -57.28,69.32 -16.78,24.38 -32.7,49.37 -47.93,74.75 -4.83,8.05 -9.61,16.13 -14.17,24.34 -1.09,1.96 -3.15,7.39 -4.12,8.38 -25.38,-5.78 -50.81,-12.72 -75.68,-20.39 z"
   id="path7"
   sodipodi:nodetypes="ccccccccccccccccsccccscccccccc" />&#10;		</g>&#10;	</g>&#10;	<path
   class="st5"
   d="m 1214.5846,1499 c 0,0 235.5575,28.64 526.5935,-160.44 0.3201,-0.21 0.6292,-0.41 0.9493,-0.62 0.5078,0.42 16.999,8.45 19.9573,10.06 75.0604,41 91.3402,55.7305 116.0324,80.7112 27.0973,25.49 25.2462,54.281 25.2462,54.281 -0.166,0.8021 -83.8794,44.6678 -125.825,61.7778 -32.9604,13.45 -147.2842,61.72 -312.3841,78.23 -169.99,17 -313.3776,-20.97 -313.488,-21"
   id="path8"
   sodipodi:nodetypes="ccccccccc"
   style="stroke-width:1.05063" />&#10;	<path
   class="st7"
   d="m 1214.5846,1499.01 c 0,0 57.1564,6.63 151.2248,-9.01 39.6055,-6.58 85.6352,-17.76 136.875,-34 72.5217,-24.4 153.0241,-62.39 239.5313,-118 -3.5323,-2.87 -15.4316,-7.66 -28.6996,-14 -74.4313,-30.26 -144.6018,-38 -185.4436,-34 -90.8011,8.89 -143.498,36 -220.7661,99 -35.3116,28.79 -65.1812,75.21 -92.7218,110.01 z"
   id="path9"
   style="stroke-width:1.05063" />&#10;	<path
   class="st7"
   d="m 904.73931,1529.25 c -200.41151,41.24 -356.5276,116.0964 -437.75851,161.8964 11.02727,13.08 23.81094,26.2936 35.62193,38.8136 10.34289,9.44 19.47157,20.18 29.53851,29.9 9.34944,9.04 18.9307,17.89 28.72167,26.55 20.07869,17.78 41.02939,34.74 62.81901,50.8 0,0.01 0,0.01 0.011,0.01 31.24945,25.78 175.85128,110.78 219.92724,119.53 0,0 0.0221,0.01 0.0331,0.02 1.01553,0.38 2.06417,0.77 3.09073,1.16 0.0993,-0.01 0.18765,-0.01 0.29804,-0.02 81.98151,-42.9 133.46417,-86.88 183.44567,-169.01 0.3753,-0.98 113.4076,-174.57 120.0747,-184.9 0.1656,0.04 42.1839,-68.0586 64.0177,-104.9886 -57.9256,-5.07 -92.7394,-3.3414 -139.0782,0.9886 -89.94015,8.41 -169.98996,29 -169.98996,29"
   id="path10"
   style="stroke-width:1.05063"
   sodipodi:nodetypes="cccccccccccccccc" />&#10;	<path
   class="st8"
   d="m 1317.2409,1705.31 c -77.6435,0.35 -144.6019,-8.31 -217.4547,-23.31 -22.0766,34 -53.9111,80.57 -69.8835,107.52 -0.2318,0.62 -1.1928,1.3184 -1.4357,1.9284 128.5632,-30.88 358.9885,-76.5584 498.5017,-105.4584 -41.5261,5.25 -140.1865,19.01 -209.7278,19.32 z"
   id="path11"
   style="stroke-width:1.05063"
   sodipodi:nodetypes="cccccc" />&#10;	<path
   class="st9"
   d="M 1028.7216,1791.3487 C 832.0079,1837.1287 683.64201,1877 683.64201,1877 c 76.16432,46 112.59074,64 164.47078,82 81.02118,-42.36 130.9916,-87.1513 180.60881,-167.6513 z"
   id="path12"
   style="stroke-width:1.05063"
   sodipodi:nodetypes="cccc" />&#10;	<path
   class="st10"
   d="M 1903.3666,1483.0039 C 1820.5793,1596.0039 1526.9687,1686 1526.9687,1686 l 284.7883,84 c 25.9621,-31.17 45.7638,-66.0513 60.9304,-103.0913 23.5337,-57.51 35.9334,-122.9148 30.6792,-183.9048 z"
   id="path13"
   sodipodi:nodetypes="ccccc"
   style="stroke-width:1.05063" />&#10;	<path
   class="st10"
   d="m 1694.475,1862.93 c 41.7911,-27.98 83.1516,-58.57 118.143,-93.57 L 1526.9687,1686 c -22.0214,4.62 -88.3065,15.67 -99.4883,17.94 -134.1485,27.2 -275.3285,58.81 -398.3063,87.43 l -0.8941,0.82 c -49.31911,79.79 -100.41544,123.27 -180.75224,165.38 l -0.52984,0.49 c 142.63701,57.05 304.45858,69.88 457.84688,50 72.7094,-9.42 147.6264,-23.76 214.7282,-51.45 61.7373,-25.5 120.3397,-57.16 174.902,-93.68 z"
   id="path14"
   style="stroke-width:1.05063" />&#10;	<path
   class="st11"
   d="m 806.18963,1943.0343 c 0,0 128.2035,9.8326 239.88197,-63.6462 68.9732,-41.4212 101.3795,-64.9902 158.211,-79.7447 44.3489,-12.1897 124.9707,-26.4295 186.73,-22.7895 37.6738,2.22 92.6184,16.8563 128.6474,27.1163 35.3999,10.08 62.0332,33.5288 109.5084,33.7106 55.0391,-0.1142 113.9842,-25.1021 157.4082,-44.65 0,0 -255.0385,293.9289 -740.7241,216.9289 -70.65488,-12.08 -152.46024,-19.9254 -239.66287,-66.9254 z"
   id="path15"
   style="stroke-width:1.05063"
   sodipodi:nodetypes="cccsccccc" />&#10;	<path
   class="st12"
   d="m 973.9495,275 c 0,0 43.3143,269.78 375.3025,290 0,0 94.9294,8 214.1431,-48 0,0 -105.7911,-182.6 -284.7883,-233 -163.367,-46 -304.6573,-9 -304.6573,-9 z"
   id="path16"
   style="stroke-width:1.05063" />&#10;	<g
   id="g29"
   transform="matrix(1.1038308,0,0,0.98628378,-117.73912,17.898285)">&#10;		<path
   d="m 859.51,1047.73 h -96.37 c -12.75,-25.39 -25.5,-50.79 -38.24,-76.18 -6.87,-13.68 -13.73,-27.35 -20.6,-41.03 -8.21,-16.36 -16.27,-33.27 -27.69,-47.69 -8.39,-10.59 -19.53,-17.59 -33.27,-17.87 -8.08,-0.16 -16.17,0 -24.25,0 v 182.77 H 535.4 V 575.88 c 45.6,0 91.21,-0.1 136.82,0 35.31,0.08 73.53,5.38 101.83,28.33 29,23.52 38.87,60.82 39.29,96.8 0.35,29.37 -5.97,58.8 -22.25,83.58 -15.65,23.81 -38.84,41.04 -65.73,50.21 v 1.22 c 23.11,9.34 38.87,35.51 50.99,55.81 6.29,10.53 11.94,21.4 17.67,32.23 16.95,32 33.9,64.01 50.85,96.01 4.87,9.23 9.76,18.44 14.64,27.66 z M 619.08,652.34 V 788.2 c 13.39,0 26.78,0.12 40.17,0 26.29,-0.23 48.4,-13.58 59.32,-37.89 9.79,-21.77 10.3,-52.96 -2.65,-73.75 -11.65,-18.69 -33.5,-24.07 -54.24,-24.22 -14.19,-0.11 -28.39,0 -42.6,0 z"
   id="path17" />&#10;		<path
   d="m 981.49,752.5 v 295.23 H 897.8 V 752.5 Z"
   id="path18"
   style="stroke-width:0.90217" />&#10;		<path
   d="m 1392.59,1047.73 h -106.01 c -14.54,-25.21 -29.08,-50.41 -43.61,-75.62 -21.73,-37.67 -43.46,-75.35 -65.19,-113.02 -8.01,-13.89 -15.2,-26.9 -20.54,-42.26 h -1.27 v 230.9 h -83.69 V 575.88 h 83.69 v 222.98 h 1.27 c 11.26,-29.53 28.95,-56.52 44.53,-83.88 21.39,-37.55 42.77,-75.09 64.16,-112.64 5.02,-8.82 10.05,-17.64 15.07,-26.46 h 99.92 l -140.5,225.11 z"
   id="path19" />&#10;		<path
   d="m 1749.17,844.86 c 0,68.38 -12.36,152.07 -76.83,190.27 -28.85,17.09 -63.44,22.07 -96.51,20.62 -31.54,-1.38 -63.13,-9.97 -87.95,-30.17 -51.38,-41.82 -59.76,-115.94 -59.78,-177.71 -0.01,-44.92 0,-89.83 0,-134.75 0,-44.96 0,-89.93 0,-134.89 0,-0.78 0,-1.56 0,-2.33 h 83.94 c 0,49.34 0,98.68 0,148.01 0,31.9 0,63.81 0,95.71 0,21.21 -0.71,42.67 1.71,63.76 4.37,38.15 20.62,78.65 63.17,84.63 17.59,2.47 36.86,0.12 51.92,-9.81 15.84,-10.43 24.94,-27.85 29.97,-45.68 7.06,-25.05 6.66,-51.07 6.66,-76.84 0,-28.96 0,-57.93 0,-86.89 0,-56.56 0,-113.12 0,-169.68 0,-1.07 0,-2.15 0,-3.22 h 83.69 v 268.97 z"
   id="path20" />&#10;		<g
   id="g28"
   transform="matrix(1,0,0,1.2055244,0,-232.3865)">&#10;			<path
   d="m 663.82,1266.46 c -36.27,16.53 -91.93,10.81 -112.19,-27.45 -20.13,-38.01 -1.14,-85.44 37.87,-101.25 22.4,-9.07 51.68,-9.43 74.32,-0.91 v 18.71 c -20.54,-9.86 -47.59,-12 -68.41,-1.67 -19.61,9.74 -29.77,29.06 -29.76,50.54 0.01,21.5 10.65,40.82 30.96,49.38 20.63,8.7 47.71,5.81 67.22,-4.53 v 17.18 z"
   id="path21" />&#10;			<path
   d="m 803.95,1272.18 h -86.08 v -138.66 h 82.47 v 15.93 h -61.8 v 44.4 h 57.25 v 15.84 h -57.25 v 46.64 h 65.42 v 15.85 z"
   id="path22" />&#10;			<path
   d="m 973.12,1272.18 h -24.39 c -8.27,-11.98 -16.52,-23.97 -24.8,-35.95 -5.29,-7.65 -10.95,-16.26 -19.8,-20.07 -8.27,-3.57 -18.4,-2.34 -27.22,-2.34 v 58.36 h -20.67 v -138.66 c 9.73,0 19.46,0 29.19,0 12.01,0 24.62,-0.85 36.44,1.53 20.03,4.03 34.92,18.26 32.75,39.78 -1.93,19.12 -18.08,29 -35.34,33.17 v 0.45 c 15.01,5.49 23.54,21.74 32.5,34.16 7.12,9.86 14.23,19.72 21.34,29.57 z m -96.21,-122.99 v 48.96 c 19.97,0 55.14,3.81 56.18,-24.92 1.05,-28.89 -36.95,-24.04 -56.18,-24.04 z"
   id="path23" />&#10;			<path
   d="m 1142.19,1272.18 h -22.84 l -16.33,-37.95 h -66.66 l -15.4,37.95 h -22.84 l 60.97,-138.66 h 22.12 z m -45.57,-53.61 c -4.57,-10.89 -9.14,-21.79 -13.71,-32.68 -4.74,-11.29 -10.6,-22.54 -12.95,-34.63 h -0.52 c -2.22,12.21 -8.5,23.9 -13.23,35.27 -4.44,10.68 -8.88,21.36 -13.33,32.04 z"
   id="path24" />&#10;			<path
   d="m 1332.13,1272.18 c 0,-39.51 -2.28,-79.77 1.55,-119.14 h -0.52 c -4.14,15.44 -12.52,29.44 -19.66,43.66 -10.15,20.22 -20.3,40.43 -30.45,60.65 -2.48,4.94 -4.97,9.89 -7.45,14.83 h -11.47 c -16.27,-32.21 -32.53,-64.43 -48.8,-96.64 -3.74,-7.4 -6.54,-14.32 -8.66,-22.5 h -0.62 c 2.24,21 1.03,42.83 1.03,63.94 0,18.4 0,36.8 0,55.2 h -19.74 v -138.66 h 28.01 c 8.8,17.72 17.6,35.43 26.4,53.15 5.41,10.89 10.82,21.77 16.23,32.66 4.24,8.53 9.08,17.1 11.73,26.26 h 0.72 c 16.1,-38.37 36.78,-74.98 55.6,-112.07 h 26.66 v 138.66 z"
   id="path25" />&#10;			<path
   d="m 1436.82,1133.53 v 138.66 h -20.67 v -138.66 z"
   id="path26" />&#10;			<path
   d="m 1609.92,1266.46 c -36.27,16.53 -91.93,10.81 -112.19,-27.45 -20.13,-38.01 -1.14,-85.44 37.87,-101.25 22.4,-9.07 51.68,-9.43 74.32,-0.91 v 18.71 c -20.54,-9.86 -47.59,-12.01 -68.41,-1.67 -19.61,9.74 -29.77,29.06 -29.76,50.54 0.01,21.5 10.65,40.82 30.96,49.38 20.63,8.7 47.71,5.81 67.22,-4.53 v 17.18 z"
   id="path27" />&#10;			<path
   d="m 1656.52,1246.14 c 16.12,12.2 43.8,16.79 62.96,9.98 6.6,-2.35 11.99,-6.83 13.36,-13.96 2.07,-10.76 -5.37,-18.46 -14.13,-23.31 -17.3,-9.58 -39.64,-14.02 -53.58,-28.83 -15.9,-16.89 -7.76,-40.66 10.99,-50.71 11.71,-6.28 25.12,-8.15 38.25,-8.09 11.09,0.05 23.42,0.38 33.73,5.01 v 19.51 c -16.44,-9.87 -45.68,-13.91 -62.26,-2.25 -7.98,5.61 -10.06,16.7 -3.89,24.57 4.79,6.11 13.54,9.52 20.34,12.69 17.83,8.32 43.84,15.61 51.04,36.45 6.88,19.92 -7.11,36.85 -25.22,42.99 -11.69,3.96 -24.69,4.92 -36.95,4.13 -11.15,-0.72 -24.79,-1.97 -34.63,-7.76 v -20.42 z"
   id="path28" />&#10;		</g>&#10;		<ellipse
   cx="939.01221"
   cy="644.75"
   id="circle28"
   rx="63.207649"
   ry="67.25"
   style="stroke-width:1.51622" />&#10;	</g>&#10;</g>&#10;</svg>